<svg version="1.1" xmlns="http://www.w3.org/2000/svg" viewBox="0 0 800.9926428381191 318.78639813158225" width="800.9926428381191" height="318.78639813158225">
  <!-- svg-source:excalidraw -->
  
  <defs>
    <style class="style-fonts">
      @font-face {
        font-family: "Virgil";
        src: url("https://excalidraw.com/Virgil.woff2");
      }
      @font-face {
        font-family: "Cascadia";
        src: url("https://excalidraw.com/Cascadia.woff2");
      }
      @font-face {
        font-family: "Assistant";
        src: url("https://excalidraw.com/Assistant-Regular.woff2");
      }
    </style>
    
  </defs>
  <rect x="0" y="0" width="800.9926428381191" height="318.78639813158225" fill="#ffffff"></rect><g stroke-linecap="round" transform="translate(10 195.332567057652) rotate(0 33.148651123046875 33.148651123046875)"><path d="M66.3 33.15 C66.3 34.88, 66.16 36.63, 65.89 38.33 C65.62 40.04, 65.21 41.75, 64.67 43.39 C64.14 45.04, 63.47 46.66, 62.68 48.2 C61.9 49.74, 60.98 51.23, 59.97 52.63 C58.95 54.03, 57.81 55.37, 56.59 56.59 C55.37 57.81, 54.03 58.95, 52.63 59.97 C51.23 60.98, 49.74 61.9, 48.2 62.68 C46.66 63.47, 45.04 64.14, 43.39 64.67 C41.75 65.21, 40.04 65.62, 38.33 65.89 C36.63 66.16, 34.88 66.3, 33.15 66.3 C31.42 66.3, 29.67 66.16, 27.96 65.89 C26.26 65.62, 24.55 65.21, 22.91 64.67 C21.26 64.14, 19.64 63.47, 18.1 62.68 C16.56 61.9, 15.06 60.98, 13.66 59.97 C12.27 58.95, 10.93 57.81, 9.71 56.59 C8.49 55.37, 7.35 54.03, 6.33 52.63 C5.31 51.23, 4.4 49.74, 3.61 48.2 C2.83 46.66, 2.16 45.04, 1.62 43.39 C1.09 41.75, 0.68 40.04, 0.41 38.33 C0.14 36.63, 0 34.88, 0 33.15 C0 31.42, 0.14 29.67, 0.41 27.96 C0.68 26.26, 1.09 24.55, 1.62 22.91 C2.16 21.26, 2.83 19.64, 3.61 18.1 C4.4 16.56, 5.31 15.06, 6.33 13.66 C7.35 12.27, 8.49 10.93, 9.71 9.71 C10.93 8.49, 12.27 7.35, 13.66 6.33 C15.06 5.31, 16.56 4.4, 18.1 3.61 C19.64 2.83, 21.26 2.16, 22.91 1.62 C24.55 1.09, 26.26 0.68, 27.96 0.41 C29.67 0.14, 31.42 0, 33.15 0 C34.88 0, 36.63 0.14, 38.33 0.41 C40.04 0.68, 41.75 1.09, 43.39 1.62 C45.04 2.16, 46.66 2.83, 48.2 3.61 C49.74 4.4, 51.23 5.31, 52.63 6.33 C54.03 7.35, 55.37 8.49, 56.59 9.71 C57.81 10.93, 58.95 12.27, 59.97 13.66 C60.98 15.06, 61.9 16.56, 62.68 18.1 C63.47 19.64, 64.14 21.26, 64.67 22.91 C65.21 24.55, 65.62 26.26, 65.89 27.96 C66.16 29.67, 66.23 32.28, 66.3 33.15 C66.37 34.01, 66.37 32.28, 66.3 33.15" stroke="#000000" stroke-width="2" fill="none"></path></g><g stroke-linecap="round" transform="translate(32.5852049644667 208.83350096540846) rotate(0 10.158197683523781 6.089658315249125)"><path d="M0 0 C4.82 0, 9.63 0, 20.32 0 M0 0 C5.97 0, 11.94 0, 20.32 0 M20.32 0 C20.32 4.2, 20.32 8.4, 20.32 12.18 M20.32 0 C20.32 3.62, 20.32 7.25, 20.32 12.18 M20.32 12.18 C16.22 12.18, 12.12 12.18, 0 12.18 M20.32 12.18 C16.14 12.18, 11.97 12.18, 0 12.18 M0 12.18 C0 9.52, 0 6.87, 0 0 M0 12.18 C0 8.25, 0 4.31, 0 0" stroke="#c3b6ee" stroke-width="2" fill="none"></path></g><g stroke-linecap="round" transform="translate(23.5592734543975 239.59444960795088) rotate(0 3.894987583149941 3.1315896072813416)"><path d="M0 0 C1.64 0, 3.29 0, 7.79 0 M0 0 C2.52 0, 5.05 0, 7.79 0 M7.79 0 C7.79 1.79, 7.79 3.58, 7.79 6.26 M7.79 0 C7.79 1.77, 7.79 3.55, 7.79 6.26 M7.79 6.26 C5.53 6.26, 3.26 6.26, 0 6.26 M7.79 6.26 C5.23 6.26, 2.67 6.26, 0 6.26 M0 6.26 C0 4.25, 0 2.25, 0 0 M0 6.26 C0 4.56, 0 2.86, 0 0" stroke="#c3b6ee" stroke-width="2" fill="none"></path></g><g stroke-linecap="round" transform="translate(33.88205721329416 239.59444960795088) rotate(0 3.894987583149941 3.1315896072813416)"><path d="M0 0 C1.6 0, 3.19 0, 7.79 0 M0 0 C2.46 0, 4.91 0, 7.79 0 M7.79 0 C7.79 2.37, 7.79 4.74, 7.79 6.26 M7.79 0 C7.79 1.88, 7.79 3.76, 7.79 6.26 M7.79 6.26 C5.62 6.26, 3.45 6.26, 0 6.26 M7.79 6.26 C4.77 6.26, 1.74 6.26, 0 6.26 M0 6.26 C0 4.94, 0 3.62, 0 0 M0 6.26 C0 4.27, 0 2.28, 0 0" stroke="#c3b6ee" stroke-width="2" fill="none"></path></g><g stroke-linecap="round" transform="translate(45.037773939610815 239.59444960795088) rotate(0 3.894987583149941 3.1315896072813416)"><path d="M0 0 C2.6 0, 5.19 0, 7.79 0 M0 0 C2.05 0, 4.09 0, 7.79 0 M7.79 0 C7.79 1.38, 7.79 2.76, 7.79 6.26 M7.79 0 C7.79 1.73, 7.79 3.45, 7.79 6.26 M7.79 6.26 C4.75 6.26, 1.7 6.26, 0 6.26 M7.79 6.26 C5.1 6.26, 2.4 6.26, 0 6.26 M0 6.26 C0 3.82, 0 1.37, 0 0 M0 6.26 C0 4.63, 0 3, 0 0" stroke="#c3b6ee" stroke-width="2" fill="none"></path></g><g stroke-linecap="round" transform="translate(54.90948807566019 239.59444960795088) rotate(0 3.894987583149941 3.1315896072813416)"><path d="M0 0 C3.03 0, 6.05 0, 7.79 0 M0 0 C2.38 0, 4.76 0, 7.79 0 M7.79 0 C7.79 1.65, 7.79 3.29, 7.79 6.26 M7.79 0 C7.79 1.58, 7.79 3.17, 7.79 6.26 M7.79 6.26 C4.78 6.26, 1.77 6.26, 0 6.26 M7.79 6.26 C5.05 6.26, 2.3 6.26, 0 6.26 M0 6.26 C0 4.56, 0 2.86, 0 0 M0 6.26 C0 4.62, 0 2.98, 0 0" stroke="#c3b6ee" stroke-width="2" fill="none"></path></g><g stroke-linecap="round"><g transform="translate(42.73021998000786 221.59962460364943) rotate(0 -7.25200169538661 8.829389229263)"><path d="M0 0 C0 1.7, 0 3.41, 0 5.05 M0 0 C0 1.42, 0 2.84, 0 5.05 M0 5.05 C-2.15 5.05, -4.31 5.05, -10.13 5.05 M0 5.05 C-2.49 5.05, -4.99 5.05, -10.13 5.05 M-10.13 5.05 C-10.13 6.91, -10.13 8.77, -10.13 12.32 M-10.13 5.05 C-10.13 7.23, -10.13 9.41, -10.13 12.32 M-10.13 12.32 C-11.78 12.32, -13.42 12.32, -14.5 12.32 M-10.13 12.32 C-11.43 12.32, -12.72 12.32, -14.5 12.32 M-14.5 12.32 C-14.5 13.62, -14.5 14.92, -14.5 17.66 M-14.5 12.32 C-14.5 13.66, -14.5 15, -14.5 17.66" stroke="#c3b6ee" stroke-width="2" fill="none"></path></g></g><mask></mask><g stroke-linecap="round"><g transform="translate(42.758409901072696 221.56123891183233) rotate(0 7.252001695386667 8.750915624983918)"><path d="M0 0 C0 1.62, 0 3.25, 0 5.07 M0 0 C0 1.93, 0 3.86, 0 5.07 M0 5.07 C3.29 5.07, 6.58 5.07, 10.13 5.07 M0 5.07 C3.98 5.07, 7.95 5.07, 10.13 5.07 M10.13 5.07 C10.13 6.65, 10.13 8.24, 10.13 12.34 M10.13 5.07 C10.13 7.09, 10.13 9.12, 10.13 12.34 M10.13 12.34 C11.16 12.34, 12.19 12.34, 14.5 12.34 M10.13 12.34 C11.47 12.34, 12.81 12.34, 14.5 12.34 M14.5 12.34 C14.5 13.7, 14.5 15.07, 14.5 17.5 M14.5 12.34 C14.5 13.68, 14.5 15.03, 14.5 17.5" stroke="#c3b6ee" stroke-width="2" fill="none"></path></g></g><mask></mask><g stroke-linecap="round"><g transform="translate(32.62076058607613 233.90252675970657) rotate(0 2.1351012105781138 2.637466170833221)"><path d="M0 0 C1.47 0, 2.95 0, 4.27 0 M0 0 C1.27 0, 2.54 0, 4.27 0 M4.27 0 C4.27 1.06, 4.27 2.13, 4.27 5.27 M4.27 0 C4.27 1.08, 4.27 2.17, 4.27 5.27" stroke="#c3b6ee" stroke-width="2" fill="none"></path></g></g><mask></mask><g stroke-linecap="round"><g transform="translate(54.167137533149116 233.90252675970657) rotate(0 -2.1351012105781138 2.637466170833221)"><path d="M0 0 C-1.22 0, -2.44 0, -4.27 0 M0 0 C-1.21 0, -2.42 0, -4.27 0 M-4.27 0 C-4.27 1.53, -4.27 3.07, -4.27 5.27 M-4.27 0 C-4.27 1.73, -4.27 3.47, -4.27 5.27" stroke="#c3b6ee" stroke-width="2" fill="none"></path></g></g><mask></mask><g transform="translate(26.6231724587401 264.6149116895582) rotate(0 19.819992065429688 12.5)"><text x="19.819992065429688" y="0" font-family="Virgil, Segoe UI Emoji" font-size="20px" fill="#000000" text-anchor="middle" style="white-space: pre;" direction="ltr" dominant-baseline="text-before-edge">ALB</text></g><g stroke-linecap="round" transform="translate(372.70658128054663 189.42356854679952) rotate(0 32.2305761824785 32.199712367130076)"><path d="M0 0 C0 0, 0 0, 0 0 M0 0 C0 0, 0 0, 0 0 M0.13 12.04 C2.85 8.92, 5.56 5.79, 10.63 -0.03 M0.13 12.04 C2.43 9.4, 4.73 6.75, 10.63 -0.03 M0.27 24.08 C5.86 17.65, 11.45 11.22, 21.26 -0.07 M0.27 24.08 C5.71 17.81, 11.16 11.55, 21.26 -0.07 M-0.26 36.88 C12.27 22.46, 24.8 8.05, 31.89 -0.1 M-0.26 36.88 C9.49 25.66, 19.24 14.45, 31.89 -0.1 M-0.12 48.92 C11.73 35.28, 23.59 21.64, 42.52 -0.14 M-0.12 48.92 C14.87 31.67, 29.86 14.42, 42.52 -0.14 M0.01 60.96 C17.89 40.39, 35.77 19.82, 53.15 -0.17 M0.01 60.96 C11.86 47.33, 23.71 33.69, 53.15 -0.17 M7.36 64.7 C18.91 51.41, 30.46 38.12, 63.78 -0.21 M7.36 64.7 C20.05 50.09, 32.75 35.49, 63.78 -0.21 M17.99 64.66 C33.61 46.7, 49.22 28.73, 64.57 11.08 M17.99 64.66 C33.17 47.2, 48.34 29.74, 64.57 11.08 M28.62 64.63 C38.4 53.37, 48.19 42.12, 64.7 23.12 M28.62 64.63 C36.79 55.23, 44.96 45.83, 64.7 23.12 M39.25 64.59 C44.99 57.99, 50.73 51.39, 64.84 35.16 M39.25 64.59 C47.76 54.81, 56.27 45.02, 64.84 35.16 M49.88 64.56 C55.22 58.42, 60.55 52.28, 64.97 47.2 M49.88 64.56 C53.29 60.64, 56.7 56.71, 64.97 47.2 M60.51 64.53 C61.86 62.97, 63.21 61.42, 64.45 60 M60.51 64.53 C61.44 63.45, 62.38 62.37, 64.45 60 M-0.19 64.24 C-0.19 64.24, -0.19 64.24, -0.19 64.24 M-0.19 64.24 C-0.19 64.24, -0.19 64.24, -0.19 64.24 M11.85 64.1 C9.03 61.65, 6.22 59.2, -0.22 53.61 M11.85 64.1 C9.34 61.91, 6.82 59.73, -0.22 53.61 M24.65 64.63 C16.42 57.47, 8.19 50.32, -0.26 42.98 M24.65 64.63 C16.75 57.76, 8.84 50.89, -0.26 42.98 M36.69 64.49 C24.21 53.65, 11.74 42.8, -0.29 32.35 M36.69 64.49 C26.09 55.28, 15.5 46.07, -0.29 32.35 M48.73 64.36 C32.28 50.06, 15.83 35.76, -0.33 21.72 M48.73 64.36 C35.67 53.01, 22.61 41.65, -0.33 21.72 M60.77 64.23 C42.45 48.3, 24.13 32.38, -0.36 11.09 M60.77 64.23 C43.27 49.01, 25.76 33.8, -0.36 11.09 M65.26 57.53 C40.76 36.23, 16.26 14.93, 0.36 1.11 M65.26 57.53 C43.97 39.02, 22.68 20.52, 0.36 1.11 M65.23 46.9 C50.76 34.33, 36.3 21.75, 10.89 -0.33 M65.23 46.9 C49.15 32.92, 33.06 18.94, 10.89 -0.33 M65.2 36.27 C52.89 25.57, 40.58 14.87, 22.93 -0.47 M65.2 36.27 C52.94 25.62, 40.68 14.96, 22.93 -0.47 M65.16 25.64 C53.56 15.55, 41.95 5.47, 34.97 -0.6 M65.16 25.64 C53.78 15.75, 42.4 5.85, 34.97 -0.6 M65.13 15.01 C58.84 9.55, 52.55 4.08, 47.77 -0.08 M65.13 15.01 C60.56 11.05, 56 7.08, 47.77 -0.08 M65.09 4.38 C63.49 2.99, 61.89 1.59, 59.81 -0.21 M65.09 4.38 C63.7 3.17, 62.3 1.95, 59.81 -0.21" stroke="#fd7e1488" stroke-width="1" fill="none"></path><path d="M0 0 C22.27 0, 44.54 0, 64.46 0 M0 0 C22.99 0, 45.98 0, 64.46 0 M64.46 0 C64.46 19.63, 64.46 39.25, 64.46 64.4 M64.46 0 C64.46 15.13, 64.46 30.25, 64.46 64.4 M64.46 64.4 C42.16 64.4, 19.86 64.4, 0 64.4 M64.46 64.4 C48.34 64.4, 32.22 64.4, 0 64.4 M0 64.4 C0 51, 0 37.59, 0 0 M0 64.4 C0 45.31, 0 26.22, 0 0" stroke="#000000" stroke-width="2" fill="none"></path></g><g stroke-linecap="round"><g transform="translate(397.6977888309938 216.16103433189846) rotate(0 -3.076774100000023 13.448499999999996)"><path d="M0 0 C-2.93 5.86, -5.85 11.71, -12.73 25.47 M0 0 C-4.98 9.96, -9.95 19.91, -12.73 25.47 M-12.73 25.47 C-8.77 25.93, -4.82 26.39, -0.52 26.9 M-12.73 25.47 C-9.63 25.83, -6.54 26.19, -0.52 26.9 M-0.52 26.9 C1.76 22.49, 4.04 18.09, 6.58 13.18 M-0.52 26.9 C2.26 21.53, 5.04 16.16, 6.58 13.18 M6.58 13.18 C4.71 9.04, 2.85 4.89, 0.9 0.56 M6.58 13.18 C4.48 8.51, 2.38 3.85, 0.9 0.56" stroke="#000000" stroke-width="2" fill="none"></path></g></g><mask></mask><g stroke-linecap="round"><g transform="translate(422.1845090309938 232.0580343318984) rotate(0 -12.746280000000013 -11)"><path d="M0 0 C-4.54 -9.84, -9.09 -19.69, -14.96 -32.42 M0 0 C-5.86 -12.7, -11.72 -25.41, -14.96 -32.42 M-14.96 -32.42 C-18.36 -32.56, -21.75 -32.7, -29.17 -33 M-14.96 -32.42 C-19.61 -32.61, -24.26 -32.8, -29.17 -33 M-29.17 -33 C-29.43 -30.47, -29.68 -27.94, -30.18 -23 M-29.17 -33 C-29.5 -29.8, -29.82 -26.6, -30.18 -23 M-30.18 -23 C-28.36 -22.75, -26.55 -22.5, -22.9 -22 M-30.18 -23 C-27.79 -22.67, -25.4 -22.34, -22.9 -22 M-22.9 -22 C-18.54 -12.6, -14.18 -3.2, -7.87 10.42 M-22.9 -22 C-18.77 -13.1, -14.65 -4.2, -7.87 10.42 M-7.87 10.42 C-3.53 10.64, 0.8 10.86, 3.69 11 M-7.87 10.42 C-5.36 10.55, -2.86 10.67, 3.69 11 M3.69 11 C4.01 7.8, 4.33 4.6, 4.69 1 M3.69 11 C3.91 8.8, 4.13 6.59, 4.69 1 M4.69 1 C4.35 0.67, 4.02 0.33, 3.69 0 M4.69 1 C4.36 0.67, 4.02 0.34, 3.69 0" stroke="#000000" stroke-width="2" fill="none"></path></g></g><mask></mask><g transform="translate(325.22724230189226 258.78639813158225) rotate(0 79.70991516113281 25)"><text x="79.70991516113281" y="0" font-family="Virgil, Segoe UI Emoji" font-size="20px" fill="#000000" text-anchor="middle" style="white-space: pre;" direction="ltr" dominant-baseline="text-before-edge">Lambda function</text><text x="79.70991516113281" y="25" font-family="Virgil, Segoe UI Emoji" font-size="20px" fill="#000000" text-anchor="middle" style="white-space: pre;" direction="ltr" dominant-baseline="text-before-edge">serving an API</text></g><g stroke-linecap="round" transform="translate(610.4920294448818 10) rotate(0 32.54042053222656 32.540420532226506)"><path d="M0 0 C0 0, 0 0, 0 0 M0 0 C0 0, 0 0, 0 0 M0.13 12.04 C3.03 8.71, 5.93 5.38, 10.63 -0.03 M0.13 12.04 C3.91 7.69, 7.7 3.34, 10.63 -0.03 M0.27 24.08 C5.83 17.68, 11.39 11.28, 21.26 -0.07 M0.27 24.08 C7.25 16.05, 14.23 8.02, 21.26 -0.07 M-0.26 36.88 C8.71 26.56, 17.68 16.24, 31.89 -0.1 M-0.26 36.88 C6.89 28.65, 14.04 20.43, 31.89 -0.1 M-0.12 48.92 C9.19 38.2, 18.51 27.49, 42.52 -0.14 M-0.12 48.92 C8.75 38.71, 17.62 28.51, 42.52 -0.14 M0.01 60.96 C12.42 46.68, 24.83 32.4, 53.15 -0.17 M0.01 60.96 C15.47 43.18, 30.92 25.4, 53.15 -0.17 M6.7 65.45 C18.3 52.12, 29.89 38.78, 63.78 -0.21 M6.7 65.45 C27.69 41.31, 48.67 17.18, 63.78 -0.21 M17.33 65.42 C32.48 47.99, 47.63 30.56, 65.88 9.57 M17.33 65.42 C27.15 54.13, 36.96 42.84, 65.88 9.57 M27.96 65.38 C40.52 50.94, 53.07 36.51, 66.02 21.61 M27.96 65.38 C39.27 52.38, 50.58 39.37, 66.02 21.61 M38.59 65.35 C49.05 53.33, 59.5 41.3, 65.49 34.41 M38.59 65.35 C45.75 57.11, 52.91 48.88, 65.49 34.41 M49.22 65.31 C53.5 60.39, 57.78 55.47, 65.63 46.45 M49.22 65.31 C54.24 59.55, 59.25 53.78, 65.63 46.45 M59.85 65.28 C61.85 62.98, 63.85 60.68, 65.76 58.49 M59.85 65.28 C62.02 62.79, 64.18 60.3, 65.76 58.49 M0.23 65.28 C0.23 65.28, 0.23 65.28, 0.23 65.28 M0.23 65.28 C0.23 65.28, 0.23 65.28, 0.23 65.28 M12.27 65.15 C8.17 61.58, 4.07 58.02, 0.19 54.65 M12.27 65.15 C9.14 62.42, 6 59.7, 0.19 54.65 M24.31 65.01 C16.02 57.8, 7.72 50.59, 0.16 44.02 M24.31 65.01 C16.74 58.43, 9.17 51.85, 0.16 44.02 M36.35 64.88 C22.94 53.23, 9.54 41.57, 0.13 33.39 M36.35 64.88 C26.36 56.2, 16.37 47.51, 0.13 33.39 M49.15 65.4 C35.54 53.58, 21.94 41.75, 0.09 22.76 M49.15 65.4 C32.06 50.55, 14.97 35.69, 0.09 22.76 M61.19 65.27 C42.21 48.77, 23.24 32.28, 0.06 12.13 M61.19 65.27 C47.8 53.63, 34.42 42, 0.06 12.13 M64.93 57.92 C40.23 36.45, 15.54 14.99, 0.02 1.5 M64.93 57.92 C43.3 39.12, 21.67 20.32, 0.02 1.5 M65.65 47.95 C52.11 36.18, 38.57 24.41, 9.8 -0.6 M65.65 47.95 C50.78 35.02, 35.92 22.1, 9.8 -0.6 M65.61 37.32 C49.28 23.12, 32.95 8.92, 21.84 -0.74 M65.61 37.32 C48.35 22.31, 31.08 7.3, 21.84 -0.74 M65.58 26.69 C54.5 17.06, 43.42 7.42, 33.88 -0.87 M65.58 26.69 C57.09 19.3, 48.59 11.92, 33.88 -0.87 M65.54 16.06 C59.38 10.69, 53.21 5.33, 46.68 -0.35 M65.54 16.06 C60.23 11.43, 54.91 6.81, 46.68 -0.35 M65.51 5.43 C64.04 4.15, 62.56 2.87, 58.72 -0.48 M65.51 5.43 C63.82 3.96, 62.14 2.49, 58.72 -0.48" stroke="#4c6ef588" stroke-width="1" fill="none"></path><path d="M0 0 C16.81 0, 33.61 0, 65.08 0 M0 0 C13.36 0, 26.72 0, 65.08 0 M65.08 0 C65.08 22.27, 65.08 44.55, 65.08 65.08 M65.08 0 C65.08 17.97, 65.08 35.94, 65.08 65.08 M65.08 65.08 C41.21 65.08, 17.34 65.08, 0 65.08 M65.08 65.08 C51.52 65.08, 37.97 65.08, 0 65.08 M0 65.08 C0 48.58, 0 32.08, 0 0 M0 65.08 C0 49.37, 0 33.66, 0 0" stroke="#000000" stroke-width="2" fill="none"></path></g><g stroke-linecap="round"><g transform="translate(646.6228301406065 25.280230484599997) rotate(0 6.8426058235760365 14.751091176351991)"><path d="M0 0 C2.88 -0.02, 5.76 -0.04, 11.29 -0.08 M0 0 C2.63 -0.02, 5.26 -0.04, 11.29 -0.08 M11.29 -0.08 C10.69 2.8, 10.08 5.67, 8.92 11.18 M11.29 -0.08 C10.65 2.96, 10.01 6, 8.92 11.18 M8.92 11.18 C10.58 11.17, 12.25 11.16, 17.04 11.13 M8.92 11.18 C11.08 11.17, 13.23 11.15, 17.04 11.13 M17.04 11.13 C11.41 17.59, 5.78 24.04, 0.95 29.58 M17.04 11.13 C12.62 16.2, 8.2 21.26, 0.95 29.58 M0.95 29.58 C2.34 23, 3.74 16.41, 4.5 12.79 M0.95 29.58 C1.91 25.07, 2.86 20.56, 4.5 12.79 M4.5 12.79 C1.61 12.83, -1.29 12.88, -3.35 12.91 M4.5 12.79 C2.87 12.81, 1.23 12.84, -3.35 12.91 M-3.35 12.91 C-2.59 9.97, -1.83 7.03, 0 0 M-3.35 12.91 C-2.64 10.14, -1.92 7.38, 0 0" stroke="#000000" stroke-width="2" fill="none"></path></g></g><mask></mask><g stroke-linecap="round"><g transform="translate(652.8389061458922 22.24951928190785) rotate(0 -15.061825738915843 4.855322700205704)"><path d="M0 0 C-0.78 -0.22, -2.83 -0.97, -4.71 -1.32 C-6.58 -1.66, -8.8 -2.04, -11.24 -2.07 C-13.67 -2.09, -16.88 -1.86, -19.32 -1.45 C-21.77 -1.04, -24.41 -0.17, -25.92 0.38 C-27.44 0.94, -27.77 1.38, -28.41 1.89 C-29.04 2.4, -29.46 2.81, -29.75 3.42 C-30.03 4.04, -30.27 4.9, -30.12 5.58 C-29.98 6.26, -29.58 6.84, -28.9 7.5 C-28.21 8.16, -27.18 8.97, -26.04 9.52 C-24.9 10.07, -23.41 10.48, -22.04 10.81 C-20.68 11.14, -19.34 11.33, -17.86 11.49 C-16.38 11.65, -14.56 11.77, -13.14 11.78 C-11.73 11.78, -9.99 11.58, -9.36 11.54 M0 0 C-0.78 -0.22, -2.83 -0.97, -4.71 -1.32 C-6.58 -1.66, -8.8 -2.04, -11.24 -2.07 C-13.67 -2.09, -16.88 -1.86, -19.32 -1.45 C-21.77 -1.04, -24.41 -0.17, -25.92 0.38 C-27.44 0.94, -27.77 1.38, -28.41 1.89 C-29.04 2.4, -29.46 2.81, -29.75 3.42 C-30.03 4.04, -30.27 4.9, -30.12 5.58 C-29.98 6.26, -29.58 6.84, -28.9 7.5 C-28.21 8.16, -27.18 8.97, -26.04 9.52 C-24.9 10.07, -23.41 10.48, -22.04 10.81 C-20.68 11.14, -19.34 11.33, -17.86 11.49 C-16.38 11.65, -14.56 11.77, -13.14 11.78 C-11.73 11.78, -9.99 11.58, -9.36 11.54" stroke="#000000" stroke-width="2" fill="none"></path></g></g><mask></mask><g stroke-linecap="round"><g transform="translate(622.8860823955163 26.870486956655895) rotate(0 -0.0759000701664263 15.725015039237292)"><path d="M0 0 C-0.03 5.24, -0.13 26.21, -0.15 31.45 M0 0 C-0.03 5.24, -0.13 26.21, -0.15 31.45" stroke="#000000" stroke-width="2" fill="none"></path></g></g><mask></mask><g stroke-linecap="round"><g transform="translate(622.5624150626938 57.9752679712733) rotate(0 18.165458324679093 3.4606259299867475)"><path d="M0 0 C0.07 0.26, 0.1 1.02, 0.43 1.53 C0.75 2.05, 1.23 2.57, 1.94 3.1 C2.64 3.63, 3.55 4.23, 4.65 4.71 C5.75 5.19, 7.2 5.63, 8.53 5.97 C9.85 6.3, 11.08 6.55, 12.6 6.71 C14.11 6.87, 15.85 6.92, 17.6 6.92 C19.35 6.93, 21.38 6.91, 23.08 6.74 C24.78 6.58, 26.27 6.33, 27.78 5.94 C29.3 5.55, 30.95 4.97, 32.16 4.41 C33.36 3.86, 34.34 3.31, 35.04 2.6 C35.73 1.9, 36.12 0.6, 36.33 0.2 M0 0 C0.07 0.26, 0.1 1.02, 0.43 1.53 C0.75 2.05, 1.23 2.57, 1.94 3.1 C2.64 3.63, 3.55 4.23, 4.65 4.71 C5.75 5.19, 7.2 5.63, 8.53 5.97 C9.85 6.3, 11.08 6.55, 12.6 6.71 C14.11 6.87, 15.85 6.92, 17.6 6.92 C19.35 6.93, 21.38 6.91, 23.08 6.74 C24.78 6.58, 26.27 6.33, 27.78 5.94 C29.3 5.55, 30.95 4.97, 32.16 4.41 C33.36 3.86, 34.34 3.31, 35.04 2.6 C35.73 1.9, 36.12 0.6, 36.33 0.2" stroke="#000000" stroke-width="2" fill="none"></path></g></g><mask></mask><g stroke-linecap="round"><g transform="translate(658.9287947421351 58.27644476572823) rotate(0 -0.0400852437006165 -7.298939482208169)"><path d="M0 0 C-0.01 -2.43, -0.07 -12.16, -0.08 -14.6 M0 0 C-0.01 -2.43, -0.07 -12.16, -0.08 -14.6" stroke="#000000" stroke-width="2" fill="none"></path></g></g><mask></mask><g stroke-linecap="round"><g transform="translate(622.692017828316 35.27464853050651) rotate(0 10.664985931171884 3.2175688300493164)"><path d="M0 0 C0.1 0.28, 0.16 1.1, 0.58 1.67 C1 2.24, 1.67 2.83, 2.53 3.4 C3.38 3.98, 4.63 4.74, 5.7 5.14 C6.78 5.53, 7.74 5.56, 8.96 5.77 C10.17 5.99, 11.56 6.33, 13 6.44 C14.43 6.54, 16.2 6.39, 17.59 6.38 C18.98 6.36, 20.71 6.34, 21.33 6.34 M0 0 C0.1 0.28, 0.16 1.1, 0.58 1.67 C1 2.24, 1.67 2.83, 2.53 3.4 C3.38 3.98, 4.63 4.74, 5.7 5.14 C6.78 5.53, 7.74 5.56, 8.96 5.77 C10.17 5.99, 11.56 6.33, 13 6.44 C14.43 6.54, 16.2 6.39, 17.59 6.38 C18.98 6.36, 20.71 6.34, 21.33 6.34" stroke="#000000" stroke-width="2" fill="none"></path></g></g><mask></mask><g stroke-linecap="round"><g transform="translate(622.5777377497059 38.63711838288464) rotate(0 12.014454878583138 3.413641568282088)"><path d="M0 0 C0.08 0.29, 0.07 1.16, 0.46 1.74 C0.85 2.32, 1.41 2.9, 2.32 3.48 C3.23 4.06, 4.57 4.75, 5.91 5.22 C7.26 5.69, 8.8 6.03, 10.41 6.3 C12.02 6.57, 13.9 6.77, 15.59 6.83 C17.27 6.89, 19.1 6.77, 20.51 6.66 C21.92 6.54, 23.44 6.24, 24.03 6.15 M0 0 C0.08 0.29, 0.07 1.16, 0.46 1.74 C0.85 2.32, 1.41 2.9, 2.32 3.48 C3.23 4.06, 4.57 4.75, 5.91 5.22 C7.26 5.69, 8.8 6.03, 10.41 6.3 C12.02 6.57, 13.9 6.77, 15.59 6.83 C17.27 6.89, 19.1 6.77, 20.51 6.66 C21.92 6.54, 23.44 6.24, 24.03 6.15" stroke="#000000" stroke-width="2" fill="none"></path></g></g><mask></mask><g stroke-linecap="round"><g transform="translate(622.6292661480563 46.89419975124065) rotate(0 11.9232467795876 3.251018803034981)"><path d="M0 0 C0.09 0.28, 0.18 1.14, 0.54 1.69 C0.89 2.24, 1.23 2.73, 2.12 3.32 C3.02 3.91, 4.44 4.78, 5.89 5.25 C7.33 5.72, 9.24 5.94, 10.8 6.15 C12.35 6.36, 13.59 6.46, 15.23 6.5 C16.86 6.55, 19.16 6.51, 20.6 6.41 C22.03 6.31, 23.3 6, 23.85 5.92 M0 0 C0.09 0.28, 0.18 1.14, 0.54 1.69 C0.89 2.24, 1.23 2.73, 2.12 3.32 C3.02 3.91, 4.44 4.78, 5.89 5.25 C7.33 5.72, 9.24 5.94, 10.8 6.15 C12.35 6.36, 13.59 6.46, 15.23 6.5 C16.86 6.55, 19.16 6.51, 20.6 6.41 C22.03 6.31, 23.3 6, 23.85 5.92" stroke="#000000" stroke-width="2" fill="none"></path></g></g><mask></mask><g stroke-linecap="round"><g transform="translate(622.4029877812816 50.89399761651748) rotate(0 18.330814841005008 2.711729602283242)"><path d="M0 0 C0.18 0.29, 0.47 1.15, 1.1 1.73 C1.73 2.32, 2.79 3.05, 3.77 3.53 C4.74 4.01, 5.39 4.2, 6.96 4.62 C8.54 5.04, 11.18 5.8, 13.23 6.05 C15.27 6.31, 17.35 6.21, 19.24 6.14 C21.13 6.08, 22.91 5.88, 24.57 5.65 C26.23 5.42, 27.69 5.18, 29.18 4.75 C30.68 4.33, 32.43 3.67, 33.53 3.08 C34.63 2.49, 35.25 1.85, 35.77 1.21 C36.3 0.58, 36.51 -0.4, 36.66 -0.72 M0 0 C0.18 0.29, 0.47 1.15, 1.1 1.73 C1.73 2.32, 2.79 3.05, 3.77 3.53 C4.74 4.01, 5.39 4.2, 6.96 4.62 C8.54 5.04, 11.18 5.8, 13.23 6.05 C15.27 6.31, 17.35 6.21, 19.24 6.14 C21.13 6.08, 22.91 5.88, 24.57 5.65 C26.23 5.42, 27.69 5.18, 29.18 4.75 C30.68 4.33, 32.43 3.67, 33.53 3.08 C34.63 2.49, 35.25 1.85, 35.77 1.21 C36.3 0.58, 36.51 -0.4, 36.66 -0.72" stroke="#000000" stroke-width="2" fill="none"></path></g></g><mask></mask><g stroke-linecap="round"><g transform="translate(653.2712248151545 51.09184399486003) rotate(0 2.7091546481839828 -1.7684364552388558)"><path d="M0 0 C0.65 -0.36, 3.03 -1.57, 3.93 -2.16 C4.83 -2.75, 5.17 -3.31, 5.42 -3.54 M0 0 C0.65 -0.36, 3.03 -1.57, 3.93 -2.16 C4.83 -2.75, 5.17 -3.31, 5.42 -3.54" stroke="#000000" stroke-width="2" fill="none"></path></g></g><mask></mask><g stroke-linecap="round"><g transform="translate(625.9111347697151 33.50558177341054) rotate(0 2.097595720521497 2.2806300052176027)"><path d="M0 0 C1.34 0.53, 2.68 1.06, 4.34 1.72 M0 0 C1.63 0.64, 3.26 1.29, 4.34 1.72 M4.34 1.72 C4.3 2.84, 4.25 3.97, 4.23 4.56 M4.34 1.72 C4.32 2.38, 4.29 3.05, 4.23 4.56 M4.23 4.56 C3.24 4.18, 2.26 3.8, -0.15 2.86 M4.23 4.56 C2.53 3.9, 0.84 3.24, -0.15 2.86 M-0.15 2.86 C-0.1 1.92, -0.05 0.98, 0 0 M-0.15 2.86 C-0.11 2.17, -0.08 1.49, 0 0" stroke="#000000" stroke-width="2" fill="none"></path></g></g><mask></mask><g stroke-linecap="round"><g transform="translate(625.9672365210774 45.317641350944086) rotate(0 2.097595720521497 2.2806300052176027)"><path d="M0 0 C1.35 0.53, 2.7 1.07, 4.34 1.72 M0 0 C1.16 0.46, 2.31 0.91, 4.34 1.72 M4.34 1.72 C4.3 2.83, 4.25 3.93, 4.23 4.56 M4.34 1.72 C4.31 2.55, 4.28 3.38, 4.23 4.56 M4.23 4.56 C2.78 4, 1.33 3.43, -0.15 2.86 M4.23 4.56 C3.22 4.17, 2.21 3.78, -0.15 2.86 M-0.15 2.86 C-0.12 2.28, -0.09 1.7, 0 0 M-0.15 2.86 C-0.1 1.88, -0.05 0.9, 0 0" stroke="#000000" stroke-width="2" fill="none"></path></g></g><mask></mask><g stroke-linecap="round"><g transform="translate(626.12167024824 56.680312805428116) rotate(0 2.097595720521497 2.2806300052176027)"><path d="M0 0 C1.03 0.41, 2.06 0.82, 4.34 1.72 M0 0 C0.91 0.36, 1.81 0.72, 4.34 1.72 M4.34 1.72 C4.3 2.68, 4.26 3.65, 4.23 4.56 M4.34 1.72 C4.3 2.85, 4.25 3.99, 4.23 4.56 M4.23 4.56 C2.53 3.9, 0.83 3.24, -0.15 2.86 M4.23 4.56 C3.34 4.22, 2.45 3.87, -0.15 2.86 M-0.15 2.86 C-0.1 1.96, -0.06 1.07, 0 0 M-0.15 2.86 C-0.1 1.82, -0.04 0.79, 0 0" stroke="#000000" stroke-width="2" fill="none"></path></g></g><mask></mask><g transform="translate(591.5324499771084 78.60849282286836) rotate(0 51.5 12.5)"><text x="0" y="0" font-family="Virgil, Segoe UI Emoji" font-size="20px" fill="#000000" text-anchor="start" style="white-space: pre;" direction="ltr" dominant-baseline="text-before-edge">DynamoDB</text></g><g mask="url(#mask-UEqnftVhQePpl-yZhYiFY)" stroke-linecap="round"><g transform="translate(79.45942293187579 224.27022217030958) rotate(0 146.12357917433548 -1.2534155787798795)"><path d="M1.15 -0.27 C49.78 -0.55, 243.82 -1.08, 292.19 -1.51" stroke="#1e1e1e" stroke-width="1.5" fill="none" stroke-dasharray="8 9"></path></g><g transform="translate(79.45942293187579 224.27022217030958) rotate(0 146.12357917433548 -1.2534155787798795)"><path d="M268.74 7.17 C276.1 3.95, 286.05 -0.3, 292.19 -1.51" stroke="#1e1e1e" stroke-width="1.5" fill="none"></path></g><g transform="translate(79.45942293187579 224.27022217030958) rotate(0 146.12357917433548 -1.2534155787798795)"><path d="M268.65 -9.93 C276.07 -7.44, 286.05 -5.98, 292.19 -1.51" stroke="#1e1e1e" stroke-width="1.5" fill="none"></path></g></g><mask id="mask-UEqnftVhQePpl-yZhYiFY"><rect x="0" y="0" fill="#fff" width="471.70658128054674" height="326.77705332786934"></rect><rect x="117.95311929371132" y="185.51680659152964" fill="#000" width="215.259765625" height="75" opacity="1"></rect></mask><g transform="translate(117.95311929371132 185.5168065915297) rotate(0 108.17297413237384 37.86110163442788)"><text x="107.6298828125" y="0" font-family="Virgil, Segoe UI Emoji" font-size="20px" fill="#1e1e1e" text-anchor="middle" style="white-space: pre;" direction="ltr" dominant-baseline="text-before-edge">1. Sends events in the</text><text x="107.6298828125" y="25" font-family="Virgil, Segoe UI Emoji" font-size="20px" fill="#1e1e1e" text-anchor="middle" style="white-space: pre;" direction="ltr" dominant-baseline="text-before-edge">form of HTTP </text><text x="107.6298828125" y="50" font-family="Virgil, Segoe UI Emoji" font-size="20px" fill="#1e1e1e" text-anchor="middle" style="white-space: pre;" direction="ltr" dominant-baseline="text-before-edge">requests</text></g><g stroke-linecap="round"><g transform="translate(436.6092188179109 200.47903835627415) rotate(0 85.64351904681041 -71.33210987768192)"><path d="M0.78 0.92 C29.24 -23.11, 142.95 -119.42, 171.29 -143.18" stroke="#1e1e1e" stroke-width="1.5" fill="none" stroke-dasharray="8 9"></path></g><g transform="translate(436.6092188179109 200.47903835627415) rotate(0 85.64351904681041 -71.33210987768192)"><path d="M158.84 -121.5 C164.42 -128.95, 166.26 -137.08, 171.29 -143.18" stroke="#1e1e1e" stroke-width="1.5" fill="none"></path></g><g transform="translate(436.6092188179109 200.47903835627415) rotate(0 85.64351904681041 -71.33210987768192)"><path d="M147.82 -134.57 C157.26 -137.65, 162.85 -141.33, 171.29 -143.18" stroke="#1e1e1e" stroke-width="1.5" fill="none"></path></g></g><mask></mask><g stroke-linecap="round"><g transform="translate(635.131326574593 76.08084106445301) rotate(0 -99.50849185767606 78.03512932335354)"><path d="M-0.58 0.47 C-33.85 26.18, -165.59 129.66, -198.86 155.4" stroke="#1e1e1e" stroke-width="1.5" fill="none" stroke-dasharray="8 9"></path></g><g transform="translate(635.131326574593 76.08084106445301) rotate(0 -99.50849185767606 78.03512932335354)"><path d="M-185.6 134.21 C-189.45 142.12, -196.18 147.62, -198.86 155.4" stroke="#1e1e1e" stroke-width="1.5" fill="none"></path></g><g transform="translate(635.131326574593 76.08084106445301) rotate(0 -99.50849185767606 78.03512932335354)"><path d="M-175.08 147.69 C-182.89 150.64, -193.45 151.23, -198.86 155.4" stroke="#1e1e1e" stroke-width="1.5" fill="none"></path></g></g><mask></mask><g transform="translate(514.1929602209316 163.29253616724952) rotate(0 138.39984130859375 25)"><text x="138.39984130859375" y="0" font-family="Virgil, Segoe UI Emoji" font-size="20px" fill="#1e1e1e" text-anchor="middle" style="white-space: pre;" direction="ltr" dominant-baseline="text-before-edge">2. Read or write operations</text><text x="138.39984130859375" y="25" font-family="Virgil, Segoe UI Emoji" font-size="20px" fill="#1e1e1e" text-anchor="middle" style="white-space: pre;" direction="ltr" dominant-baseline="text-before-edge">on the database</text></g><g mask="url(#mask-B6M2q9VyoJxo4x4NK-hpK)" stroke-linecap="round"><g transform="translate(383.26904411038004 182.4206439384957) rotate(0 -165.64941329899142 -37.10852907621751)"><path d="M1.16 -1.15 C-25.32 -15.53, -102.57 -88.64, -157.97 -86.28 C-213.37 -83.91, -302.18 -3.27, -331.25 13.05" stroke="#1e1e1e" stroke-width="1.5" fill="none" stroke-dasharray="8 9"></path></g><g transform="translate(383.26904411038004 182.4206439384957) rotate(0 -165.64941329899142 -37.10852907621751)"><path d="M-317.03 -7.51 C-324.32 -0.19, -327.48 8.26, -331.25 13.05" stroke="#1e1e1e" stroke-width="1.5" fill="none"></path></g><g transform="translate(383.26904411038004 182.4206439384957) rotate(0 -165.64941329899142 -37.10852907621751)"><path d="M-307.14 6.44 C-318.18 8.58, -325.09 11.75, -331.25 13.05" stroke="#1e1e1e" stroke-width="1.5" fill="none"></path></g></g><mask id="mask-B6M2q9VyoJxo4x4NK-hpK"><rect x="0" y="0" fill="#fff" width="814.5678707083629" height="381.12168003812565"></rect><rect x="120.64356363878846" y="70.9615968124632" fill="#000" width="210.01974487304688" height="50" opacity="1"></rect></mask><g transform="translate(120.64356363878846 70.9615968124632) rotate(0 97.58010334172678 74.81657035804753)"><text x="105.00987243652344" y="0" font-family="Virgil, Segoe UI Emoji" font-size="20px" fill="#1e1e1e" text-anchor="middle" style="white-space: pre;" direction="ltr" dominant-baseline="text-before-edge">3. Return a response</text><text x="105.00987243652344" y="25" font-family="Virgil, Segoe UI Emoji" font-size="20px" fill="#1e1e1e" text-anchor="middle" style="white-space: pre;" direction="ltr" dominant-baseline="text-before-edge">back to the client</text></g></svg>