<svg version="1.1" xmlns="http://www.w3.org/2000/svg" viewBox="0 0 970.9000707617693 238.8255529030556" width="970.9000707617693" height="238.8255529030556">
  <!-- svg-source:excalidraw -->
  
  <defs>
    <style class="style-fonts">
      @font-face {
        font-family: "Virgil";
        src: url("https://excalidraw.com/Virgil.woff2");
      }
      @font-face {
        font-family: "Cascadia";
        src: url("https://excalidraw.com/Cascadia.woff2");
      }
      @font-face {
        font-family: "Assistant";
        src: url("https://excalidraw.com/Assistant-Regular.woff2");
      }
    </style>
    
  </defs>
  <rect x="0" y="0" width="970.9000707617693" height="238.8255529030556" fill="#ffffff"></rect><g stroke-linecap="round" transform="translate(371.803694974542 70.94551129128729) rotate(0 32.2305761824785 32.199712367130076)"><path d="M-0.65 -0.04 L63.17 -1.57 L66.27 62.51 L1.95 65.84" stroke="none" stroke-width="0" fill="#fd7e14"></path><path d="M0 0 C15.76 1.7, 25.83 -0.89, 64.46 0 M0 0 C13.75 0.26, 29.42 0.46, 64.46 0 M64.46 0 C66.4 18.03, 64.05 31.76, 64.46 64.4 M64.46 0 C65.91 20.86, 64.99 41.08, 64.46 64.4 M64.46 64.4 C48.66 64.13, 34.21 64.01, 0 64.4 M64.46 64.4 C42.39 64.72, 22.03 63.5, 0 64.4 M0 64.4 C1.29 40.41, 0.29 19.31, 0 0 M0 64.4 C0.42 42.86, 0.76 20.04, 0 0" stroke="#00000000" stroke-width="2" fill="none"></path></g><g stroke-linecap="round" transform="translate(369.39330309986605 75.70552185025235) rotate(0 32.2305761824785 32.199712367130076)"><path d="M0 0 C0 0, 0 0, 0 0 M0 0 C0 0, 0 0, 0 0 M-0.26 6.4 C1.66 4.19, 3.58 1.97, 4.99 0.36 M-0.26 6.4 C1.55 4.31, 3.36 2.23, 4.99 0.36 M0.13 12.04 C2.39 9.44, 4.66 6.84, 10.63 -0.03 M0.13 12.04 C3.55 8.11, 6.96 4.19, 10.63 -0.03 M-0.13 18.44 C5.65 11.8, 11.42 5.16, 15.62 0.33 M-0.13 18.44 C6 11.39, 12.12 4.35, 15.62 0.33 M0.27 24.08 C6.88 16.48, 13.48 8.88, 21.26 -0.07 M0.27 24.08 C7.15 16.16, 14.03 8.24, 21.26 -0.07 M0 30.48 C8.86 20.29, 17.72 10.11, 26.25 0.29 M0 30.48 C9.25 19.84, 18.5 9.2, 26.25 0.29 M-0.26 36.88 C8.32 27.01, 16.89 17.15, 31.89 -0.1 M-0.26 36.88 C11.63 23.2, 23.53 9.52, 31.89 -0.1 M0.14 42.52 C13.41 27.25, 26.68 11.99, 36.88 0.26 M0.14 42.52 C13.47 27.19, 26.79 11.86, 36.88 0.26 M-0.12 48.92 C11.73 35.28, 23.58 21.65, 42.52 -0.14 M-0.12 48.92 C11.25 35.83, 22.62 22.75, 42.52 -0.14 M0.27 54.56 C16.52 35.87, 32.77 17.17, 47.51 0.22 M0.27 54.56 C16.74 35.61, 33.22 16.66, 47.51 0.22 M0.01 60.96 C17.48 40.86, 34.95 20.76, 53.15 -0.17 M0.01 60.96 C15.17 43.51, 30.34 26.07, 53.15 -0.17 M1.72 65.09 C19.51 44.62, 37.31 24.15, 58.14 0.19 M1.72 65.09 C20.94 42.98, 40.16 20.87, 58.14 0.19 M7.36 64.7 C22.76 46.98, 38.16 29.27, 63.78 -0.21 M7.36 64.7 C21.15 48.83, 34.94 32.97, 63.78 -0.21 M12.35 65.06 C29.57 45.24, 46.79 25.43, 64.83 4.68 M12.35 65.06 C31.78 42.7, 51.22 20.34, 64.83 4.68 M17.99 64.66 C33.71 46.58, 49.43 28.5, 64.57 11.08 M17.99 64.66 C27.96 53.19, 37.93 41.73, 64.57 11.08 M22.98 65.02 C38.04 47.7, 53.1 30.37, 64.96 16.72 M22.98 65.02 C38.56 47.09, 54.15 29.16, 64.96 16.72 M28.62 64.63 C36.67 55.37, 44.71 46.12, 64.7 23.12 M28.62 64.63 C36.41 55.67, 44.2 46.71, 64.7 23.12 M33.61 64.99 C39.98 57.66, 46.36 50.32, 64.44 29.52 M33.61 64.99 C42.19 55.12, 50.77 45.24, 64.44 29.52 M39.25 64.59 C44.46 58.61, 49.66 52.62, 64.84 35.16 M39.25 64.59 C47.52 55.08, 55.79 45.56, 64.84 35.16 M44.24 64.95 C52.28 55.7, 60.33 46.45, 64.57 41.56 M44.24 64.95 C50.91 57.28, 57.59 49.6, 64.57 41.56 M49.88 64.56 C53.3 60.63, 56.71 56.7, 64.97 47.2 M49.88 64.56 C55.33 58.29, 60.78 52.03, 64.97 47.2 M54.87 64.92 C57.54 61.84, 60.22 58.77, 64.71 53.6 M54.87 64.92 C58.4 60.86, 61.93 56.8, 64.71 53.6 M60.51 64.53 C61.35 63.56, 62.18 62.6, 64.45 60 M60.51 64.53 C61.32 63.59, 62.13 62.66, 64.45 60" stroke="#fd7e14" stroke-width="0.5" fill="none"></path><path d="M0 0 C17.15 0, 34.3 0, 64.46 0 M0 0 C17.56 0, 35.12 0, 64.46 0 M64.46 0 C64.46 16.98, 64.46 33.96, 64.46 64.4 M64.46 0 C64.46 20.35, 64.46 40.71, 64.46 64.4 M64.46 64.4 C50.65 64.4, 36.83 64.4, 0 64.4 M64.46 64.4 C49.37 64.4, 34.28 64.4, 0 64.4 M0 64.4 C0 40.11, 0 15.81, 0 0 M0 64.4 C0 38.92, 0 13.44, 0 0" stroke="#000000" stroke-width="1" fill="none"></path></g><g stroke-linecap="round"><g transform="translate(394.3845106503132 102.48255134619433) rotate(0 -3.076774100000023 13.448499999999996)"><path d="M0 0 C-4.76 9.53, -9.53 19.06, -12.73 25.47 M0 0 C-3.92 7.84, -7.84 15.69, -12.73 25.47 M-12.73 25.47 C-8.07 26.01, -3.41 26.56, -0.52 26.9 M-12.73 25.47 C-9.25 25.87, -5.76 26.28, -0.52 26.9 M-0.52 26.9 C1.71 22.59, 3.94 18.29, 6.58 13.18 M-0.52 26.9 C2.14 21.75, 4.8 16.61, 6.58 13.18 M6.58 13.18 C5.38 10.51, 4.18 7.85, 0.9 0.56 M6.58 13.18 C4.58 8.75, 2.59 4.31, 0.9 0.56" stroke="#ffffff" stroke-width="2" fill="none"></path></g></g><mask></mask><g stroke-linecap="round"><g transform="translate(418.8712308503132 118.37955134619426) rotate(0 -12.746280000000013 -11)"><path d="M0 0 C-3.66 -7.93, -7.32 -15.86, -14.96 -32.42 M0 0 C-4.91 -10.63, -9.81 -21.26, -14.96 -32.42 M-14.96 -32.42 C-18.49 -32.56, -22.01 -32.71, -29.17 -33 M-14.96 -32.42 C-17.9 -32.54, -20.83 -32.66, -29.17 -33 M-29.17 -33 C-29.48 -29.92, -29.79 -26.84, -30.18 -23 M-29.17 -33 C-29.43 -30.47, -29.68 -27.94, -30.18 -23 M-30.18 -23 C-28.23 -22.73, -26.29 -22.47, -22.9 -22 M-30.18 -23 C-28.18 -22.73, -26.18 -22.45, -22.9 -22 M-22.9 -22 C-16.92 -9.11, -10.95 3.77, -7.87 10.42 M-22.9 -22 C-18.36 -12.21, -13.82 -2.42, -7.87 10.42 M-7.87 10.42 C-4.72 10.58, -1.58 10.74, 3.69 11 M-7.87 10.42 C-3.65 10.63, 0.57 10.84, 3.69 11 M3.69 11 C4.03 7.62, 4.36 4.25, 4.69 1 M3.69 11 C4.06 7.28, 4.43 3.56, 4.69 1 M4.69 1 C4.3 0.61, 3.92 0.23, 3.69 0 M4.69 1 C4.4 0.71, 4.11 0.42, 3.69 0" stroke="#ffffff" stroke-width="2" fill="none"></path></g></g><mask></mask><g transform="translate(310.55687368159676 143.28929574666938) rotate(0 90.27220153808594 20)"><text x="90.27220153808594" y="0" font-family="Virgil, Segoe UI Emoji" font-size="16px" fill="#000000" text-anchor="middle" style="white-space: pre;" direction="ltr" dominant-baseline="text-before-edge">AWS Lambda acting as</text><text x="90.27220153808594" y="20" font-family="Virgil, Segoe UI Emoji" font-size="16px" fill="#000000" text-anchor="middle" style="white-space: pre;" direction="ltr" dominant-baseline="text-before-edge">a client to the API</text></g><g stroke-linecap="round" transform="translate(35.64955444335965 72.0229400444199) rotate(0 32.350445556640494 32.350445556640494)"><path d="M0 0 C0 0, 0 0, 0 0 M0 0 C0 0, 0 0, 0 0 M0.13 12.04 C2.51 9.31, 4.89 6.57, 10.63 -0.03 M0.13 12.04 C3.34 8.36, 6.54 4.67, 10.63 -0.03 M0.27 24.08 C7.51 15.74, 14.76 7.41, 21.26 -0.07 M0.27 24.08 C7.24 16.06, 14.22 8.03, 21.26 -0.07 M-0.26 36.88 C9.84 25.27, 19.93 13.66, 31.89 -0.1 M-0.26 36.88 C8.4 26.92, 17.05 16.97, 31.89 -0.1 M-0.12 48.92 C9.19 38.2, 18.51 27.49, 42.52 -0.14 M-0.12 48.92 C8.98 38.44, 18.09 27.97, 42.52 -0.14 M0.01 60.96 C20.38 37.53, 40.75 14.09, 53.15 -0.17 M0.01 60.96 C17.31 41.06, 34.6 21.17, 53.15 -0.17 M7.36 64.7 C26.77 42.37, 46.18 20.04, 63.78 -0.21 M7.36 64.7 C24.62 44.85, 41.87 24.99, 63.78 -0.21 M17.33 65.42 C32.39 48.09, 47.45 30.77, 64.57 11.08 M17.33 65.42 C35.02 45.07, 52.71 24.72, 64.57 11.08 M27.96 65.38 C41.94 49.31, 55.91 33.23, 64.7 23.12 M27.96 65.38 C40.75 50.67, 53.54 35.96, 64.7 23.12 M38.59 65.35 C47.2 55.45, 55.81 45.54, 64.84 35.16 M38.59 65.35 C44.33 58.75, 50.06 52.16, 64.84 35.16 M49.22 65.31 C53.31 60.62, 57.39 55.92, 64.97 47.2 M49.22 65.31 C52.86 61.14, 56.49 56.96, 64.97 47.2 M59.85 65.28 C61.12 63.82, 62.39 62.36, 65.1 59.24 M59.85 65.28 C61.22 63.7, 62.59 62.13, 65.1 59.24 M-0.34 64.41 C-0.34 64.41, -0.34 64.41, -0.34 64.41 M-0.34 64.41 C-0.34 64.41, -0.34 64.41, -0.34 64.41 M12.46 64.93 C9.7 62.53, 6.94 60.13, -0.37 53.78 M12.46 64.93 C9.79 62.61, 7.13 60.3, -0.37 53.78 M24.5 64.8 C18.72 59.78, 12.94 54.75, 0.35 43.8 M24.5 64.8 C18.79 59.83, 13.07 54.87, 0.35 43.8 M36.54 64.66 C28.37 57.56, 20.2 50.46, 0.31 33.17 M36.54 64.66 C23.31 53.17, 10.09 41.67, 0.31 33.17 M48.58 64.53 C35.49 53.15, 22.4 41.77, 0.28 22.54 M48.58 64.53 C29.33 47.8, 10.08 31.06, 0.28 22.54 M60.62 64.4 C38.03 44.76, 15.43 25.11, 0.24 11.91 M60.62 64.4 C39.98 46.46, 19.34 28.52, 0.24 11.91 M65.11 57.7 C51.68 46.03, 38.25 34.35, 0.21 1.28 M65.11 57.7 C47.05 42, 28.98 26.29, 0.21 1.28 M65.08 47.07 C44.09 28.83, 23.1 10.58, 10.74 -0.16 M65.08 47.07 C46.18 30.65, 27.29 14.22, 10.74 -0.16 M65.05 36.44 C54.64 27.4, 44.24 18.36, 22.78 -0.3 M65.05 36.44 C55.57 28.21, 46.09 19.97, 22.78 -0.3 M65.01 25.81 C55.66 17.69, 46.31 9.56, 34.82 -0.43 M65.01 25.81 C56.12 18.09, 47.23 10.36, 34.82 -0.43 M64.98 15.18 C60.45 11.25, 55.92 7.31, 47.62 0.09 M64.98 15.18 C59.14 10.11, 53.31 5.04, 47.62 0.09 M64.94 4.55 C63.8 3.56, 62.66 2.57, 59.66 -0.04 M64.94 4.55 C63.38 3.2, 61.82 1.84, 59.66 -0.04" stroke="#e6498088" stroke-width="1" fill="none"></path><path d="M0 0 C16.66 0, 33.32 0, 64.7 0 M0 0 C21.94 0, 43.87 0, 64.7 0 M64.7 0 C64.7 18, 64.7 36, 64.7 64.7 M64.7 0 C64.7 23.21, 64.7 46.43, 64.7 64.7 M64.7 64.7 C45.97 64.7, 27.24 64.7, 0 64.7 M64.7 64.7 C51.44 64.7, 38.17 64.7, 0 64.7 M0 64.7 C0 47.85, 0 31.01, 0 0 M0 64.7 C0 43.08, 0 21.46, 0 0" stroke="#000000" stroke-width="2" fill="none"></path></g><g stroke-linecap="round"><g transform="translate(53.799674749033784 104.60497421050229) rotate(0 14.548263240227556 0.04160210811423326)"><path d="M0 0 C1.5 -2.62, 3 -5.23, 7.26 -12.66 M0 0 C2.02 -3.52, 4.04 -7.04, 7.26 -12.66 M7.26 -12.66 C10.21 -12.64, 13.16 -12.62, 21.75 -12.57 M7.26 -12.66 C11.95 -12.63, 16.63 -12.6, 21.75 -12.57 M21.75 -12.57 C24.66 -7.57, 27.56 -2.57, 29.1 0.07 M21.75 -12.57 C24.16 -8.42, 26.57 -4.27, 29.1 0.07 M29.1 0.07 C27.48 2.87, 25.87 5.66, 21.97 12.42 M29.1 0.07 C26.52 4.53, 23.95 8.98, 21.97 12.42 M21.97 12.42 C18 12.5, 14.03 12.59, 7.36 12.74 M21.97 12.42 C16.73 12.53, 11.48 12.65, 7.36 12.74 M7.36 12.74 C5.79 10.03, 4.23 7.32, 0 0 M7.36 12.74 C5.85 10.12, 4.33 7.5, 0 0" stroke="#000000" stroke-width="2" fill="none"></path></g></g><mask></mask><g stroke-linecap="round" transform="translate(53.53304460602658 81.41789591059694) rotate(0 3.2635242032211806 3.263524203221152)"><path d="M6.53 3.26 C6.53 3.45, 6.51 3.64, 6.48 3.83 C6.44 4.02, 6.39 4.2, 6.33 4.38 C6.27 4.56, 6.18 4.73, 6.09 4.9 C6 5.06, 5.88 5.22, 5.76 5.36 C5.64 5.51, 5.51 5.64, 5.36 5.76 C5.22 5.88, 5.06 6, 4.9 6.09 C4.73 6.18, 4.56 6.27, 4.38 6.33 C4.2 6.39, 4.02 6.44, 3.83 6.48 C3.64 6.51, 3.45 6.53, 3.26 6.53 C3.07 6.53, 2.88 6.51, 2.7 6.48 C2.51 6.44, 2.32 6.39, 2.15 6.33 C1.97 6.27, 1.8 6.18, 1.63 6.09 C1.47 6, 1.31 5.88, 1.17 5.76 C1.02 5.64, 0.88 5.51, 0.76 5.36 C0.64 5.22, 0.53 5.06, 0.44 4.9 C0.34 4.73, 0.26 4.56, 0.2 4.38 C0.13 4.2, 0.08 4.02, 0.05 3.83 C0.02 3.64, 0 3.45, 0 3.26 C0 3.07, 0.02 2.88, 0.05 2.7 C0.08 2.51, 0.13 2.32, 0.2 2.15 C0.26 1.97, 0.34 1.8, 0.44 1.63 C0.53 1.47, 0.64 1.31, 0.76 1.17 C0.88 1.02, 1.02 0.88, 1.17 0.76 C1.31 0.64, 1.47 0.53, 1.63 0.44 C1.8 0.34, 1.97 0.26, 2.15 0.2 C2.32 0.13, 2.51 0.08, 2.7 0.05 C2.88 0.02, 3.07 0, 3.26 0 C3.45 0, 3.64 0.02, 3.83 0.05 C4.02 0.08, 4.2 0.13, 4.38 0.2 C4.56 0.26, 4.73 0.34, 4.9 0.44 C5.06 0.53, 5.22 0.64, 5.36 0.76 C5.51 0.88, 5.64 1.02, 5.76 1.17 C5.88 1.31, 6 1.47, 6.09 1.63 C6.18 1.8, 6.27 1.97, 6.33 2.15 C6.39 2.32, 6.44 2.51, 6.48 2.7 C6.51 2.88, 6.52 3.17, 6.53 3.26 C6.54 3.36, 6.54 3.17, 6.53 3.26" stroke="#000000" stroke-width="2" fill="none"></path></g><g stroke-linecap="round"><g transform="translate(58.61819610221113 87.57670493966896) rotate(0 1.215019717920086 2.0826207844147007)"><path d="M0 0 C0.67 1.15, 1.34 2.3, 2.43 4.17 M0 0 C0.54 0.92, 1.07 1.84, 2.43 4.17" stroke="#000000" stroke-width="2" fill="none"></path></g></g><mask></mask><g stroke-linecap="round" transform="translate(76.61084163536492 120.80182688508137) rotate(180 3.263524203221152 3.263524203221152)"><path d="M6.53 3.26 C6.53 3.45, 6.51 3.64, 6.48 3.83 C6.44 4.02, 6.39 4.2, 6.33 4.38 C6.27 4.56, 6.18 4.73, 6.09 4.9 C6 5.06, 5.88 5.22, 5.76 5.36 C5.64 5.51, 5.51 5.64, 5.36 5.76 C5.22 5.88, 5.06 6, 4.9 6.09 C4.73 6.18, 4.56 6.27, 4.38 6.33 C4.2 6.39, 4.02 6.44, 3.83 6.48 C3.64 6.51, 3.45 6.53, 3.26 6.53 C3.07 6.53, 2.88 6.51, 2.7 6.48 C2.51 6.44, 2.32 6.39, 2.15 6.33 C1.97 6.27, 1.8 6.18, 1.63 6.09 C1.47 6, 1.31 5.88, 1.17 5.76 C1.02 5.64, 0.88 5.51, 0.76 5.36 C0.64 5.22, 0.53 5.06, 0.44 4.9 C0.34 4.73, 0.26 4.56, 0.2 4.38 C0.13 4.2, 0.08 4.02, 0.05 3.83 C0.02 3.64, 0 3.45, 0 3.26 C0 3.07, 0.02 2.88, 0.05 2.7 C0.08 2.51, 0.13 2.32, 0.2 2.15 C0.26 1.97, 0.34 1.8, 0.44 1.63 C0.53 1.47, 0.64 1.31, 0.76 1.17 C0.88 1.02, 1.02 0.88, 1.17 0.76 C1.31 0.64, 1.47 0.53, 1.63 0.44 C1.8 0.34, 1.97 0.26, 2.15 0.2 C2.32 0.13, 2.51 0.08, 2.7 0.05 C2.88 0.02, 3.07 0, 3.26 0 C3.45 0, 3.64 0.02, 3.83 0.05 C4.02 0.08, 4.2 0.13, 4.38 0.2 C4.56 0.26, 4.73 0.34, 4.9 0.44 C5.06 0.53, 5.22 0.64, 5.36 0.76 C5.51 0.88, 5.64 1.02, 5.76 1.17 C5.88 1.31, 6 1.47, 6.09 1.63 C6.18 1.8, 6.27 1.97, 6.33 2.15 C6.39 2.32, 6.44 2.51, 6.48 2.7 C6.51 2.88, 6.52 3.17, 6.53 3.26 C6.54 3.36, 6.54 3.17, 6.53 3.26" stroke="#000000" stroke-width="2" fill="none"></path></g><g stroke-linecap="round"><g transform="translate(75.62269910978097 117.00482469362248) rotate(180 1.215019717920086 2.0826207844147007)"><path d="M0 0 C0.57 0.98, 1.14 1.96, 2.43 4.17 M0 0 C0.78 1.33, 1.55 2.66, 2.43 4.17" stroke="#000000" stroke-width="2" fill="none"></path></g></g><mask></mask><g stroke-linecap="round" transform="translate(82.2388087091503 90.98019331243756) rotate(0 3.263524203221152 3.263524203221152)"><path d="M6.53 3.26 C6.53 3.45, 6.51 3.64, 6.48 3.83 C6.44 4.02, 6.39 4.2, 6.33 4.38 C6.27 4.56, 6.18 4.73, 6.09 4.9 C6 5.06, 5.88 5.22, 5.76 5.36 C5.64 5.51, 5.51 5.64, 5.36 5.76 C5.22 5.88, 5.06 6, 4.9 6.09 C4.73 6.18, 4.56 6.27, 4.38 6.33 C4.2 6.39, 4.02 6.44, 3.83 6.48 C3.64 6.51, 3.45 6.53, 3.26 6.53 C3.07 6.53, 2.88 6.51, 2.7 6.48 C2.51 6.44, 2.32 6.39, 2.15 6.33 C1.97 6.27, 1.8 6.18, 1.63 6.09 C1.47 6, 1.31 5.88, 1.17 5.76 C1.02 5.64, 0.88 5.51, 0.76 5.36 C0.64 5.22, 0.53 5.06, 0.44 4.9 C0.34 4.73, 0.26 4.56, 0.2 4.38 C0.13 4.2, 0.08 4.02, 0.05 3.83 C0.02 3.64, 0 3.45, 0 3.26 C0 3.07, 0.02 2.88, 0.05 2.7 C0.08 2.51, 0.13 2.32, 0.2 2.15 C0.26 1.97, 0.34 1.8, 0.44 1.63 C0.53 1.47, 0.64 1.31, 0.76 1.17 C0.88 1.02, 1.02 0.88, 1.17 0.76 C1.31 0.64, 1.47 0.53, 1.63 0.44 C1.8 0.34, 1.97 0.26, 2.15 0.2 C2.32 0.13, 2.51 0.08, 2.7 0.05 C2.88 0.02, 3.07 0, 3.26 0 C3.45 0, 3.64 0.02, 3.83 0.05 C4.02 0.08, 4.2 0.13, 4.38 0.2 C4.56 0.26, 4.73 0.34, 4.9 0.44 C5.06 0.53, 5.22 0.64, 5.36 0.76 C5.51 0.88, 5.64 1.02, 5.76 1.17 C5.88 1.31, 6 1.47, 6.09 1.63 C6.18 1.8, 6.27 1.97, 6.33 2.15 C6.39 2.32, 6.44 2.51, 6.48 2.7 C6.51 2.88, 6.52 3.17, 6.53 3.26 C6.54 3.36, 6.54 3.17, 6.53 3.26" stroke="#000000" stroke-width="2" fill="none"></path></g><g stroke-linecap="round" transform="translate(47.46320759065611 111.38312508325805) rotate(0 3.263524203221152 3.263524203221152)"><path d="M6.53 3.26 C6.53 3.45, 6.51 3.64, 6.48 3.83 C6.44 4.02, 6.39 4.2, 6.33 4.38 C6.27 4.56, 6.18 4.73, 6.09 4.9 C6 5.06, 5.88 5.22, 5.76 5.36 C5.64 5.51, 5.51 5.64, 5.36 5.76 C5.22 5.88, 5.06 6, 4.9 6.09 C4.73 6.18, 4.56 6.27, 4.38 6.33 C4.2 6.39, 4.02 6.44, 3.83 6.48 C3.64 6.51, 3.45 6.53, 3.26 6.53 C3.07 6.53, 2.88 6.51, 2.7 6.48 C2.51 6.44, 2.32 6.39, 2.15 6.33 C1.97 6.27, 1.8 6.18, 1.63 6.09 C1.47 6, 1.31 5.88, 1.17 5.76 C1.02 5.64, 0.88 5.51, 0.76 5.36 C0.64 5.22, 0.53 5.06, 0.44 4.9 C0.34 4.73, 0.26 4.56, 0.2 4.38 C0.13 4.2, 0.08 4.02, 0.05 3.83 C0.02 3.64, 0 3.45, 0 3.26 C0 3.07, 0.02 2.88, 0.05 2.7 C0.08 2.51, 0.13 2.32, 0.2 2.15 C0.26 1.97, 0.34 1.8, 0.44 1.63 C0.53 1.47, 0.64 1.31, 0.76 1.17 C0.88 1.02, 1.02 0.88, 1.17 0.76 C1.31 0.64, 1.47 0.53, 1.63 0.44 C1.8 0.34, 1.97 0.26, 2.15 0.2 C2.32 0.13, 2.51 0.08, 2.7 0.05 C2.88 0.02, 3.07 0, 3.26 0 C3.45 0, 3.64 0.02, 3.83 0.05 C4.02 0.08, 4.2 0.13, 4.38 0.2 C4.56 0.26, 4.73 0.34, 4.9 0.44 C5.06 0.53, 5.22 0.64, 5.36 0.76 C5.51 0.88, 5.64 1.02, 5.76 1.17 C5.88 1.31, 6 1.47, 6.09 1.63 C6.18 1.8, 6.27 1.97, 6.33 2.15 C6.39 2.32, 6.44 2.51, 6.48 2.7 C6.51 2.88, 6.52 3.17, 6.53 3.26 C6.54 3.36, 6.54 3.17, 6.53 3.26" stroke="#000000" stroke-width="2" fill="none"></path></g><g stroke-linecap="round"><g transform="translate(68.42025184845664 85.81472805605688) rotate(0 7.4405321838152645 2.8707290641609973)"><path d="M0 0 C2.23 -0.01, 4.46 -0.02, 10.97 -0.04 M0 0 C3.55 -0.01, 7.09 -0.03, 10.97 -0.04 M10.97 -0.04 C12.52 2.26, 14.06 4.56, 14.88 5.78 M10.97 -0.04 C12.25 1.87, 13.54 3.78, 14.88 5.78" stroke="#000000" stroke-width="2" fill="none"></path></g></g><mask></mask><g stroke-linecap="round"><g transform="translate(85.21625645264015 114.40894468715067) rotate(0 2.6799406055446298 -8.804549402115612)"><path d="M0 0 C2.02 -3.65, 4.03 -7.3, 5.36 -9.7 M0 0 C2.01 -3.65, 4.03 -7.29, 5.36 -9.7 M5.36 -9.7 C3.86 -12.78, 2.37 -15.86, 1.51 -17.61 M5.36 -9.7 C4.29 -11.89, 3.23 -14.09, 1.51 -17.61" stroke="#000000" stroke-width="2" fill="none"></path></g></g><mask></mask><g stroke-linecap="round"><g transform="translate(52.69868378391266 117.29857974685308) rotate(180 7.440532183815236 2.8707290641609973)"><path d="M0 0 C4.38 -0.02, 8.76 -0.03, 10.97 -0.04 M0 0 C3.36 -0.01, 6.73 -0.02, 10.97 -0.04 M10.97 -0.04 C12.44 2.15, 13.92 4.34, 14.88 5.78 M10.97 -0.04 C12.34 1.99, 13.7 4.03, 14.88 5.78" stroke="#000000" stroke-width="2" fill="none"></path></g></g><mask></mask><g stroke-linecap="round"><g transform="translate(45.42386233627076 112.05492004831274) rotate(180 2.6799406055446013 -8.804549402115612)"><path d="M0 0 C1.99 -3.61, 3.99 -7.22, 5.36 -9.7 M0 0 C1.92 -3.48, 3.84 -6.95, 5.36 -9.7 M5.36 -9.7 C4.46 -11.55, 3.56 -13.4, 1.51 -17.61 M5.36 -9.7 C4.31 -11.85, 3.27 -14.01, 1.51 -17.61" stroke="#000000" stroke-width="2" fill="none"></path></g></g><mask></mask><g transform="translate(10 140.27236423693637) rotate(0 57.99999999999997 12.5)"><text x="0" y="0" font-family="Virgil, Segoe UI Emoji" font-size="20px" fill="#000000" text-anchor="start" style="white-space: pre;" direction="ltr" dominant-baseline="text-before-edge">EventBridge</text></g><g mask="url(#mask-oX_mpm1ugwKOuGjehkiIK)" stroke-linecap="round"><g transform="translate(105.49109123164266 104.41519523052312) rotate(0 133.51419224329788 -0.15245249799605176)"><path d="M-0.92 -0.86 C43.58 -0.9, 222.59 -0.58, 267.26 -0.56" stroke="#1e1e1e" stroke-width="1.5" fill="none" stroke-dasharray="8 9"></path></g><g transform="translate(105.49109123164266 104.41519523052312) rotate(0 133.51419224329788 -0.15245249799605176)"><path d="M243.76 7.96 C249.92 5.79, 258.5 2.84, 267.26 -0.56" stroke="#1e1e1e" stroke-width="1.5" fill="none"></path></g><g transform="translate(105.49109123164266 104.41519523052312) rotate(0 133.51419224329788 -0.15245249799605176)"><path d="M243.78 -9.14 C249.89 -5.8, 258.46 -3.25, 267.26 -0.56" stroke="#1e1e1e" stroke-width="1.5" fill="none"></path></g></g><mask id="mask-oX_mpm1ugwKOuGjehkiIK"><rect x="0" y="0" fill="#fff" width="472.5194757182384" height="204.72010022651523"></rect><rect x="165.63537228109294" y="79.26274273252704" fill="#000" width="146.7398223876953" height="50" opacity="1"></rect></mask><g transform="translate(165.63537228109294 79.26274273252704) rotate(0 73.02678677923979 24.439683895940448)"><text x="73.36991119384766" y="0" font-family="Virgil, Segoe UI Emoji" font-size="20px" fill="#1e1e1e" text-anchor="middle" style="white-space: pre;" direction="ltr" dominant-baseline="text-before-edge">1. Rule triggers</text><text x="73.36991119384766" y="25" font-family="Virgil, Segoe UI Emoji" font-size="20px" fill="#1e1e1e" text-anchor="middle" style="white-space: pre;" direction="ltr" dominant-baseline="text-before-edge">an event</text></g><g stroke-linecap="round" transform="translate(717.5905399115186 10) rotate(0 121.65476542512533 109.4127764515278)"><path d="M32 0 C75.78 2.2, 121.47 -0.68, 211.31 0 M211.31 0 C231.37 -1.62, 245.09 12.27, 243.31 32 M243.31 32 C241.98 65.87, 241.44 96.76, 243.31 186.83 M243.31 186.83 C243.86 206.97, 232.38 219.75, 211.31 218.83 M211.31 218.83 C149.15 221.12, 90.83 221.87, 32 218.83 M32 218.83 C9.59 220.02, -0.32 207.46, 0 186.83 M0 186.83 C-0.82 136.37, -0.72 89.26, 0 32 M0 32 C0.51 11.94, 10.05 0.72, 32 0" stroke="#1e1e1e" stroke-width="1.5" fill="none" stroke-dasharray="8 9"></path></g><g transform="translate(750.4954121481674 94.4127764515278) rotate(0 88.74989318847656 25)"><text x="88.74989318847656" y="0" font-family="Virgil, Segoe UI Emoji" font-size="20px" fill="#1e1e1e" text-anchor="middle" style="white-space: pre;" direction="ltr" dominant-baseline="text-before-edge">Movies API</text><text x="88.74989318847656" y="25" font-family="Virgil, Segoe UI Emoji" font-size="20px" fill="#1e1e1e" text-anchor="middle" style="white-space: pre;" direction="ltr" dominant-baseline="text-before-edge">(see use case #1)</text></g><g stroke-linecap="round"><g transform="translate(436.7899178296254 82.68680953073533) rotate(0 139.63518673009673 1.530248621699684)"><path d="M-0.02 -1.03 C46.48 -0.33, 231.89 2.9, 278.36 3.48" stroke="#1e1e1e" stroke-width="1.5" fill="none" stroke-dasharray="8 9"></path></g><g transform="translate(436.7899178296254 82.68680953073533) rotate(0 139.63518673009673 1.530248621699684)"><path d="M254.74 11.67 C258.85 8.15, 267.04 6.84, 278.36 3.48" stroke="#1e1e1e" stroke-width="1.5" fill="none"></path></g><g transform="translate(436.7899178296254 82.68680953073533) rotate(0 139.63518673009673 1.530248621699684)"><path d="M255 -5.43 C258.95 -4.77, 267.07 -1.9, 278.36 3.48" stroke="#1e1e1e" stroke-width="1.5" fill="none"></path></g></g><mask></mask><g stroke-linecap="round"><g transform="translate(716.5905399115186 136.37369104602948) rotate(0 -141.43055966264626 -4.654835743001598)"><path d="M0.33 -0.44 C-46.98 -1.93, -236.67 -7.9, -283.82 -9.42" stroke="#1e1e1e" stroke-width="1.5" fill="none" stroke-dasharray="8 9"></path></g><g transform="translate(716.5905399115186 136.37369104602948) rotate(0 -141.43055966264626 -4.654835743001598)"><path d="M-260.06 -17.22 C-267.99 -16.4, -274.61 -11.9, -283.82 -9.42" stroke="#1e1e1e" stroke-width="1.5" fill="none"></path></g><g transform="translate(716.5905399115186 136.37369104602948) rotate(0 -141.43055966264626 -4.654835743001598)"><path d="M-260.61 -0.13 C-268.3 -4.46, -274.75 -5.11, -283.82 -9.42" stroke="#1e1e1e" stroke-width="1.5" fill="none"></path></g></g><mask></mask><g transform="translate(493.0665111920977 94.16367419348308) rotate(0 76.08991241455078 12.5)"><text x="76.08991241455078" y="0" font-family="Virgil, Segoe UI Emoji" font-size="20px" fill="#1e1e1e" text-anchor="middle" style="white-space: pre;" direction="ltr" dominant-baseline="text-before-edge">HTTP requests</text></g></svg>